<?xml version="1.0" encoding="UTF-8"?>
<svg id="Layer_2" data-name="Layer 2" xmlns="http://www.w3.org/2000/svg" viewBox="0 0 237.99 341.63">
  <defs>
    <style>
      .cls-1 {
        fill: #d43f2f;
      }

      .cls-2 {
        fill: #f73737;
      }

      .cls-3 {
        fill: #e8503b;
      }

      .cls-4 {
        fill: #dbdada;
      }

      .cls-5 {
        fill: #f2b141;
      }

      .cls-6 {
        fill: #e2e2e2;
      }

      .cls-7 {
        fill: #e8513c;
      }

      .cls-8 {
        fill: #faf4f0;
      }

      .cls-9 {
        fill: #fbf9f7;
      }
    </style>
  </defs>
  <g id="Layer_1-2" data-name="Layer 1">
    <g>
      <path class="cls-1" d="M22.77,298.44c0-2.2-.3-3.83-.91-4.89-.6-1.06-1.81-1.59-3.63-1.59h-.65v-1.94h17.61c8.72,0,15.36,1.85,19.91,5.54,4.55,3.69,6.83,8.88,6.83,15.57,0,4.27-.96,8.04-2.88,11.3-1.92,3.26-4.77,5.79-8.55,7.61-3.78,1.81-8.32,2.72-13.63,2.72h-14.12v-34.32ZM36.69,330.17c3.02,0,5.71-.75,8.06-2.27,2.35-1.51,4.19-3.69,5.5-6.54,1.32-2.85,1.97-6.17,1.97-9.97s-.66-7.05-1.97-9.88c-1.32-2.83-3.16-5.02-5.54-6.57-2.38-1.55-5.09-2.33-8.16-2.33h-.52c-1.42,0-2.57.09-3.43.26l-1.42.19v36.65l1.42.26c.91.13,2.05.19,3.43.19h.65Z"/>
      <path class="cls-1" d="M105.72,331.3c-2.2-1.14-3.99-3.38-5.37-6.7l-1.49-3.63h-17.23l-5.31,11.79h-3.37l19.1-42.74h2.91l14.51,34.58c1.64,4.01,3.89,6.17,6.73,6.48v1.62c-.78.21-1.81.32-3.11.32-2.72,0-5.18-.57-7.38-1.72ZM82.99,318.06h14.63l-7.12-16.9-7.51,16.9Z"/>
      <path class="cls-1" d="M122.82,339.69c2.07-.26,3.59-1.29,4.57-3.08s1.46-4.87,1.46-9.23v-37.36h8.42v37.36c0,3.84-.4,6.77-1.2,8.77-.8,2.01-2.21,3.42-4.24,4.24-2.03.82-5.03,1.23-9,1.23v-1.94Z"/>
      <path class="cls-1" d="M185.05,331.3c-2.2-1.14-3.99-3.38-5.37-6.7l-1.49-3.63h-17.23l-5.31,11.79h-3.37l19.1-42.74h2.91l14.51,34.58c1.64,4.01,3.89,6.17,6.73,6.48v1.62c-.78.21-1.81.32-3.11.32-2.72,0-5.18-.57-7.38-1.72ZM162.32,318.06h14.63l-7.12-16.9-7.51,16.9Z"/>
      <path class="cls-1" d="M202.14,339.69c2.07-.26,3.59-1.29,4.57-3.08s1.46-4.87,1.46-9.23v-37.36h8.42v37.36c0,3.84-.4,6.77-1.2,8.77-.8,2.01-2.21,3.42-4.24,4.24-2.03.82-5.03,1.23-9,1.23v-1.94Z"/>
    </g>
    <g>
      <path class="cls-5" d="M120.2,29.37c.32,0,.64,0,.96,0,7.36.01,15.92.48,23.14,1.93,1.69.34,4.07.98,5.79,1.45,1.54.42,3.29,1.31,5.07,1.72.89.21,1.45,1.1,1.21,1.98-1.27,4.66-2.83,8.71-2.42,13.88.45,5.58,2.04,6.77,4.33,10.85,3.72,6.64,10.84,19.73,9.16,27.48-.08.37-2.3,4.72-2.68,5.27-2.16,3.09-6.23,5.81-9.85,6.78-.19-.11-.96.07-1.4-.27-6.26-4.84-2.38-11.38-1.95-17.79.38-5.79-.36-10.44-3.48-15.36-1.56-2.46-11.21-12.73-13.89-11.9-.82.25-2.01,4.97-2.41,5.79-2.47,5.01-5.87,9.73-8.72,14.54-.03.05-.06.1-.1.15l-10.84,14.11c-.07.09-.14.16-.22.24-1.44,1.23-3.52,3.05-4.95,4.22-4.43,3.6-9.31,6.7-14.69,8.69-.25-.04-.84-.29-.96-.48-2.69-4.1-6.03-8.09-8.2-12.53-.16-.32-.34-.65-.48-.96-2.98-6.45-4.52-13.75-7.49-20.23-2.78-6.07-4.52-8.96-11.8-7.25-.46.11-.75.14-1.05.26-.28.12-.8.16-1.33.48-4.75,2.82-2.46,12.39-11.11,14.94-3.8,1.12-8.46-.2-11.1,3.36-2.07,2.78-1.38,5.34-.16,8.3.25.6.55.94.64,1.1,4.84,8.2,14.27,10.34,23.14,12.53.19.05.52.18.96.28,4.25.97,8.61,2.13,13.01,2.14.38,1.26-1.27,1.37-2.16,1.45-1.07.09-2.14.1-3.22.05-1.53-.08-2.3,1.79-1.15,2.8.01.01.03.02.04.04,1.4,1.34,2.76,2.58,4.09,4.35l.56.62c-.91.92-1.91,2.13-2.49,2.76-3.89,4.24-6.12,7.82-7.71,13.5-.01.05-.18.37-.3,1.15-.24,1.45-.5,3.14-.66,4.64s-.17,2.47-.08,5.28c0,.03.01.23,0,.26-.04,1.22-.1,1.21-.02,2.41.06.9.43,3.75.65,4.79.05.21.07.34.1.57.09.69.26,1.37.29,2.11q.08,2.28.02,3.56c-.04.9-.1,2.07-.41,2.82-.24.57-.5.92-.94,1.22-2.83,1.89-5.49,3.46-9.28,2.04-.14-.23-.68-.36-1-1.15-3.74-9.35,2.8-22.25,7.25-30.43-.47-.36-.94.55-1.44.73-5.57,1.98-10.59,5.88-14.75,10-2.27,2.25-4.36,4.71-6.07,7.42-1.58,2.51-2.25,4.98-3.18,7.72-.64,1.88-1.72,3.56-2.43,5.41-.14.37-.21.3-.34.87-.11.46-.27.98-.43,1.5-.45,1.5-.8,2.52-.94,4.11-.27,1.38-.13,0-.16.62-.01.22-.06.39-.09.61-.22,1.64-.38,3.28-.5,4.93-.21,2.9-.26,5.81-.19,8.72.02.62.04,1.25-.15,1.83-.1.33-.26.64-.3.98-.06.59.3,1.14.46,1.72.29,1-.02,2.02.09,3.03s.47,1.7.51,2.72c.02.53-.14,1.21.48,1.45-.04.3-.02.66,0,.96.05.84.47.91.48.96.14.93.25,1.99.48,2.89.17.66.47.91.48.96.07.28-.07.68,0,.96.19.75-.48,1.15.96.96.04.31-.03.65,0,.96.05.55,0,1.04.48,1.45.17,1.54.67,1.91.96,2.89,3.12,10.59,8.55,17.85,14.94,26.03,5.03,6.44,7.87,10.04,14.46,15.43,4.1,3.36,8.29,6.36,12.87,9.07,1.94,1.15,4.52,1.79,5.93,3.47-3-.61-16.49-6.12-18.8-7.71-.55-.38-.46-.38-1.45-.96-.13-.08-.43-.84-.97-1.17-7.72-4.79-15.06-10.2-21.44-16.69-.34-.35-.76-.38-1.21-.45.03-.46-.28-.67-.48-.96-.98-1.46-2.09-2.27-3.37-3.37-.38-.33-.48-1.1-1.45-.96-.24-2.09-3.33-4.6-4.8-6.53-4.08-5.34-8.27-10.95-11.2-17.02-.26-.21-.59-.05-.87-.08-.04-.31.06-.68,0-.96-.49-2.3-4.31-8.67-5.53-11.59-1.89-4.51-3.72-9.28-5.08-13.97-.36-1.25-1.32-3.32-1.45-3.86-1.93-8.31-2.33-18.47-2.41-27,0-.54-.48-1.21-.48-1.45.02-2.57.26-6.33.49-8.91.38-4.37,2.51-11.94,2.48-16.38,0-.52.17-1.06.59-1.37.72-.53.5-2.31.78-3.23.07-.23.35-.56.48-.96,2.62-8.39,5.94-17.91,10.12-25.55.2-.37.8-.67.96-.96,2.29-4.02,5.06-7.99,7.8-11.72,1.31-1.78,6.62-7.66,7.86-9.86.17-.3.44-.51.75-.68.17-.09.29-.24.47-.4,1.8-1.68,3.58-3.74,5.3-5.3.37-.34.69-.72.96-.96,6.23-5.54,14.51-11.94,21.69-15.91.3-.17.64-.31.96-.48,5.15-2.78,11.78-5.43,17.37-7.45,3.3-1.19,6.86-2.38,10.24-3.44.35-.11.5-.12.75-.18,2.58-.62,4.04-1.06,6.35-1.45,7.31-1.25,14.77-1.87,22.18-1.93Z"/>
      <path class="cls-1" d="M95.18,158.96c0,.96,0,1.93,0,2.89,0,2.4-.1,4.84,0,7.23.03.71-.13,1.37.48,1.93-.09,1.34-.06,2.98,0,4.34.47,10.26,4.19,19.83,8.2,28.93.15.34.2.84.48,1.45,4.59,10,8.23,15.82,15.43,24.1.51.58.8.78.96.96,1.01,1.13,1.61,1.58,2.41,2.41.11.12.25.74.96,1.45,7.84,7.76,15.31,13.2,25.55,17.36.85.35,1.44.61,2.41.96-.29,1.38,1.83,1.5,2.89,1.93,1.56.63,2.66,1.07,4.34,1.45-.18,1.42.18.8.96.96,1.84.4,2.62.55,4.34,1.45-.96,1.61-4.6.2-4.33,2.08,0-2.74-.96.11-1.45.33l-.58-.33-.38.33c-.32.03-.65-.03-.96,0-1.25.11-2.51.19-3.76.26-1.14.06-2.29.09-3.43.11-1.1.01-1.93.5-3.03.47s-2.43-.2-3.57-.2c-1.78,0-3.64-.5-5.4-.66-.02,0-.05-.01-.07-.01-.06,0-.13,0-.16-.01-.35-.05-.37-.06-.55-.12s-.45-.09-.64-.12c-.25-.03-.46-.09-.69-.14-.05,0-.02,0-.06-.02-.09-.02-.11-.02-.15-.03-.54-.13-.46-.13-.67-.2-.85-.25-1.36-.52-2.22-.73-.97-.24-1.92-.54-2.86-.87-1-.35-1.99-.73-2.97-1.14-.96-.4-1.91-.83-2.85-1.27-.84-.4-1.68-.82-2.5-1.27-.19-.1-.39-.21-.58-.32-.34-.19-.7-.33-.96-.48-6.61-3.88-17.13-14.03-21.69-20.25-2.09-2.84-5.04-7.91-6.75-11.09-7.55-14.04-9.74-31.19-8.7-47.02.37-5.6,2.08-11.22,2.43-16.86.64-10.39-.99-21.55-3.61-31.57-.6-2.29-2.35-6.01-2.65-7.97-.16-1.07.28-.62.96-.71.16-.02-.96-1.19-.8-1.19,3.64,5.43,8.69,11.55,11.4,17.59.41.92,1.22,2.29,1.45,2.89.82,2.14,1.91,5.95,2.41,8.2.06.29-.06.67,0,.96.29,1.48-.44,2.67.48,3.86"/>
      <path class="cls-6" d="M6.43,115.66c-.13.41-.41.74-.48.96-.46-.03-.51-.59-.48-.96h.96Z"/>
      <path class="cls-6" d="M29.57,187.01c-.65-.71-.88-2.32,0-2.89.27,1.86.02,1.71,0,2.89Z"/>
      <path class="cls-6" d="M29.57,189.9c1.96-.24.51,1.04.48,1.45-.63-.23-.46-.92-.48-1.45Z"/>
      <path class="cls-6" d="M30.05,192.8c1.94-.22.54.96.48,1.45-.63-.23-.46-.92-.48-1.45Z"/>
      <path class="cls-6" d="M31.98,200.99c1.35-.15.84.08.96.96-1.45.18-.78-.22-.96-.96Z"/>
      <path class="cls-6" d="M31.5,199.06c1.09-.18,1.37.22.48.96-.01-.05-.31-.3-.48-.96Z"/>
      <path class="cls-6" d="M30.53,195.21c1.12-.16,1.33.16.48.96,0-.05-.43-.12-.48-.96Z"/>
      <path class="cls-6" d="M33.42,204.37c-.48-.4-.43-.89-.48-1.45h.48c.03.48-.05.98,0,1.45Z"/>
      <path class="cls-3" d="M79.22,117.59l.61,1.54c-1.43,4.77-1.48-3.6-.61.62.44,2.11,2.05,5.68,2.65,7.97,2.62,10.02,4.25,21.19,3.61,31.57-.35,5.63-2.06,11.25-2.43,16.86-1.04,15.83,1.15,32.98,8.7,47.02-.34,3.9,1.51,7.59,2.89,11.09,5.29,13.33,12.7,21.18,25.07,27.96.69.38,1.39.91,2.41,1.45.62.33.97.67,1.45.96-.66.84-2.32.47-3.37.48-2.65.03-5.08-.47-7.72-.66-1.77-.13-3.53-.39-5.28-.73-2.16-.42-4.3-.94-6.44-1.47-.17-.04-.35-.09-.52-.13-1.03-.25-2.06-.51-3.09-.78-1.77-.48-3.51-1.03-5.25-1.6-.91-.3-1.83-.59-2.72-.93-.99-.37-1.2-.38-2.08-.76-.42-.18-.93-.5-1.3-.71-7.18-4.03-14.84-8.55-21.04-13.93-3.48-3.02-7.75-7.48-10.61-11.09-6.18-7.8-11.71-17.94-15.43-27-.13-.32-.33-.97-.35-1.02-1.67-5.22-2.54-12.12-3.03-17.78-.38-4.4-.42-6.66,0-11.09,1.72-18.15,10.03-32.55,23.14-44.83.5-.18.97-1.08,1.44-.73-4.46,8.18-10.82,20.96-7.08,30.32.32.79.68,1.03.82,1.26,1.56,2.57,2.48,3.56,5.76,4.12,1.48.26,6.69,1.19,7.15-.93.32-.08,0,0,.44-.42.38-.37,1.94-2.79,2.05-3.52.68-4.2-.02-8.75-.94-12.75-.17-.74-.45-1.35-.48-1.45-3.22-10.7,3.08-21.31,10.71-29.4.6,0,.31,0,.86.47Z"/>
      <path class="cls-9" d="M95.61,159.05c1.59-.52,1.43,3.58,0,2.89,0-.96,0-1.93,0-2.89Z"/>
      <path class="cls-8" d="M152.5,253.06c1.07.39,3.18.58,2.89,1.93-1.06-.43-3.18-.55-2.89-1.93Z"/>
      <path class="cls-9" d="M95.61,169.17c2.05-.29.51,1.48.48,1.93-.61-.56-.45-1.22-.48-1.93Z"/>
      <path class="cls-4" d="M160.69,257.4c-.78-.17-1.14.45-.96-.96"/>
      <path class="cls-4" d="M159.25,261.25c-.76.06-.89,0-.96,0l.38-.33.58.33Z"/>
      <path class="cls-1" d="M120.41,210.7s30.29,67.19,98.83,32.05l-98.83-32.05Z"/>
      <path class="cls-7" d="M214.53,156.88s14.66-15.26,13.52-33.51c0,0,20.93,15.51,2.04,69.29,0,0-4.23-30.42-15.56-35.78Z"/>
      <path class="cls-5" d="M156.82,34.69S67.61,5.27,16.55,90.11c-51.06,84.84,28.93,170.18,66.05,171.14l-19.17-9.48-20.57-20.13-13.3-20.13-18.45-36.68-3.04-46.34,5.01-17.44,19.05-33.63,8.05-8.41,37.3-21.65,65.9-4.95,13.46-7.73Z"/>
      <path class="cls-1" d="M79.22,117.59s12.86,12.02,15.43,28.95c2.56,16.93-.53,37.6,8.61,55.48,9.15,17.89,20.3,32.56,25.94,37.11,5.64,4.55,35.83,19.73,35.83,19.73,0,0-5.61,5.37-22.36,2.59-4.01-.67-7.94-1.78-11.75-3.19-3.3-1.23-6.52-2.68-9.64-4.31-2.29-1.2-4.53-2.49-6.71-3.88-.94-.6-1.87-1.22-2.77-1.87,0,0-.02-.01-.02-.02l-21.63-33.87.06-41.01-5.04-38.02-3.55-11.7-2.41-6.01Z"/>
      <path class="cls-5" d="M59.93,129.8s0,.09-.05.11c-1.52.99-32.18,21.29-30.3,45.53,1.91,24.63,5.25,39.65,16.16,53.15,9.7,12.02,32.12,28.9,36.92,32.47.1.08,0,.24-.11.18l-27.7-13.35s-.03-.02-.04-.03l-14.39-17.95s-.01-.02-.02-.03l-20.65-49.47s0-.02,0-.04l-2.67-32.33s0-.07.03-.1l24.67-25.43s.07-.04.11-.04l17.45,3.16c.05,0,.09.05.1.11l.51,4.07Z"/>
      <path class="cls-3" d="M52.67,160.31s9.73,10.15,14.86,2.45c5.13-7.7-1.43-17.24-.85-22.58s10.41-20.02,10.41-20.02l-.64,29.38-4.36,21.11h-11.36l-9.43-5.77,1.37-4.57Z"/>
      <path class="cls-3" d="M168.74.02c.25,9.1,3.06,17.29,6.36,25.56.16.39.37.68.48.94,5.63,13.52,9.1,16.59,18.23,27.37.93,1.09,1.52,2.58,3.11,4.35.49.62,5.71,9.48,6.58,11.38,1.59,3.5,3.83,8.97,4.76,12.61.07.27-.06.67,0,.95,1.87,8.01,2.87,18.89,1.63,27.02-.03.19-.14.83-.26,1.44-1.51,8.04-4.9,16.53-8.95,23.61-.51.88-1.28,3.07-2.43,3.02-.08-.04-1.38-.87-1.43-.94-4.79-5.82-10.01-11.31-16.69-14.96-7.51-4.11-16.22-7.64-24.73-6.79-.89.09-1.53.07-2.55.2-.5.06-1.11.23-1.6.3-1.1.17-1.86.26-2.94.52-.44.1-1.2.14-1.64.2-.64.09-1.33.11-1.95.12-1.62.01-3.22.21-4.83.26s-3.2.2-4.87.24c-2.04.05-4.13.1-6.17.05-5.72-.14-10.18-.53-15.67-2.25-.46-.14-.96-.31-1.43-.46-1.49-.5-5.58-2.36-6.66-2.79-1.04-.63-1.69-1-2.38-1.4-1.78-1.04-12.75-8.14-12.41-9.62,5.8-3.88,11.75-8.28,16.49-13.43.92-1,1.68-2.73,2.36-3.56,7.92-9.77,11.19-16.08,14.48-28.57.04-.17.33-.86.59-1.79.42-1.45.93-2.52.79-3.91,2.63-.84,12.21,9.19,13.76,11.6,3.1,4.82,3.87,9.39,3.54,15.09-.37,6.31-4.14,12.77,2.06,17.49.44.33.68.53.86.63.04.02.36.26.86.56,2.53,1.46,7.6.62,10.11-.76,1.49-.81,2.63-2.13,3.47-3.58.94-1.61,1.55-3.41,1.95-5.23.4-1.84.59-3.74.56-5.63-.01-.86-.07-1.72-.2-2.57-.06-.39-.14-.77-.21-1.16-.11-.64-.17-1.32-.17-1.97,0-.06-.02-.15-.03-.21-.1-.48-.19-.85-.27-1.16-.02-.08-.02-.12-.05-.2-.01-.04-.02-.08-.02-.12,0-.42-.18-.75-.18-1.17,0-.2-.1-.4-.14-.59-.05-.25-.11-.35-.18-.53-.03-.06-.02-.16-.03-.23-.03-.19-.08-.38-.14-.57-.15-.52-.35-1.03-.55-1.53-.57-1.38-1.23-2.72-1.92-4.04-.77-1.46-1.58-2.9-2.45-4.3-.71-1.13-1.44-2.27-2.31-3.29-.31-.37-.74-.84-1.02-1.23-1.2-2.59-2.73-4.62-3.45-7.27-1.98-7.23-.81-14.19,1.73-21.04.09-.24.24-.66.33-.89,1.8-4.57,5.97-10.95,8.79-15.11,1.51-2.24,6.29-9.34,8.09-10.63.13-.09.68.06.95,0Z"/>
      <path class="cls-2" d="M158.55,156.62c-2.43,2.43-2.28,5.02.3,7.15,1.67,1.37,2.74,1.22,4.56-.61,1.37-1.37,2.43-3.04,2.43-3.65,0-1.22-3.34-4.71-4.56-4.71-.46,0-1.67.76-2.74,1.82ZM162.81,160.12c0,1.22-.61,2.28-1.37,2.28-1.98,0-3.34-2.43-2.13-3.65,1.67-1.67,3.5-.91,3.5,1.37Z"/>
      <path class="cls-3" d="M161.82,113.27c-2.43,2.43-2.28,5.02.3,7.15,1.67,1.37,2.74,1.22,4.56-.61,1.37-1.37,2.43-3.04,2.43-3.65,0-1.22-3.34-4.71-4.56-4.71-.46,0-1.67.76-2.74,1.82ZM166.08,116.77c0,1.22-.61,2.28-1.37,2.28-1.98,0-3.34-2.43-2.13-3.65,1.67-1.67,3.5-.91,3.5,1.37Z"/>
      <path class="cls-2" d="M109.47,164.59c-1.83,1.83-1.72,3.77.23,5.38,1.26,1.03,2.06.92,3.43-.46,1.03-1.03,1.83-2.29,1.83-2.75,0-.92-2.52-3.55-3.43-3.55-.34,0-1.26.57-2.06,1.37ZM112.67,167.22c0,.92-.46,1.72-1.03,1.72-1.49,0-2.52-1.83-1.6-2.75,1.26-1.26,2.63-.69,2.63,1.03Z"/>
      <path class="cls-1" d="M107.51,200.73c-2.42-.93-4.15-.03-4.82,2.4-.43,1.57,0,2.25,1.81,2.95,1.36.52,2.83.74,3.25.55.84-.37,2.21-3.74,1.84-4.58-.14-.31-1.03-.92-2.09-1.32ZM106.41,204.73c-.84.37-1.75.28-1.99-.24-.61-1.36.65-3.04,1.86-2.58,1.66.64,1.7,2.12.13,2.82Z"/>
      <path class="cls-2" d="M150.66,181.53c-.46.91-3.5,1.37-6.54.91-3.5-.3-6.54.3-8.21,1.67-3.04,2.74-1.98,6.54,1.82,6.54,4.41,0,7.45,1.67,6.69,3.5-.3,1.06.15,2.89.91,4.11,1.98,3.04,6.99,0,6.39-3.8-.76-3.8,2.58-5.32,9.27-4.26,4.87.76,5.63.46,5.63-1.98,0-1.67-1.22-3.95-2.58-5.17-3.34-2.89-12.01-3.8-13.38-1.52ZM162.97,185.18c4.11,3.04,2.13,4.26-3.65,2.13-3.95-1.52-5.17-1.37-7.75.91-2.43,2.13-3.5,2.28-6.23.91-1.82-1.06-4.71-1.52-6.23-1.06-1.52.46-2.89.15-2.89-.46,0-1.98,5.47-3.19,9.58-2.28,2.13.61,4.26.3,4.71-.61,1.52-2.43,8.97-2.13,12.47.46ZM149.9,195.98c0,1.22-.61,2.28-1.52,2.28-.76,0-1.52-1.06-1.52-2.28s.76-2.28,1.52-2.28c.91,0,1.52,1.06,1.52,2.28Z"/>
      <path class="cls-2" d="M158.55,210.05c2.71.86,1.42,4.79-1.12,3.96-2.99-.97-1.55-4.81,1.12-3.96Z"/>
      <path class="cls-2" d="M121.74,183.25c-2.27-.61-.29-2.88,1.22-2.04,1.46.82.46,2.49-1.22,2.04Z"/>
      <path class="cls-2" d="M190.36,166.59c-2.27-.61-.29-2.88,1.22-2.04,1.46.82.46,2.49-1.22,2.04Z"/>
      <path class="cls-2" d="M108.66,147.44c-1.24-1.27.71-4.75,2.04-4.97,1.27-.21,5.33,2.1,4.88,3.44-.9,2.67-4.93,3.56-6.91,1.53Z"/>
      <path class="cls-2" d="M198.76,193.08c-1.24-1.27.71-4.75,2.04-4.97,1.27-.21,5.33,2.1,4.88,3.44-.9,2.67-4.93,3.56-6.91,1.53Z"/>
      <path class="cls-2" d="M127.26,131.81c-2.66.43-3.58,3.79-5.23,5.15-.85.7-1.54.47-1.26-.7.89-3.76,5.1-9.11,9.09-9.77,4.5-.74,6.82.85,10.62,1.27,2.02.22,3.41-.43,5.59.16,1.27.34,6.78,3.48,4.36,4.66-.58.28-5.93-.88-7.24-.96-5.02-.32-10.98-.34-15.93.19Z"/>
      <polygon class="cls-1" points="79.39 120.42 78.37 117.12 79.22 117.59 80.28 119.61 79.39 120.42"/>
      <path class="cls-1" d="M78.37,117.12s.3-.1.46.07.43.44.43.44l-.5-.16-.39-.35Z"/>
    </g>
    <path class="cls-1" d="M135.87,243.39s-8.99-4.67-18.64-18.24,1.76,12.82,1.76,12.82l13.86,6.99,3.02-1.57Z"/>
  </g>
</svg>